{
  "accessors": [
    {
      "bufferView": 2,
      "componentType": 5126,
      "count": 25075,
      "max": [
        9.919899940490723,
        -6.508299827575684,
        13.964300155639648
      ],
      "min": [
        -9.92039966583252,
        -27.575899124145508,
        -15.306300163269043
      ],
      "type": "VEC3"
    },
    {
      "bufferView": 2,
      "byteOffset": 300900,
      "componentType": 5126,
      "count": 25075,
      "max": [
        0.9999991655349731,
        0.9999979734420776,
        0.9999884366989136
      ],
      "min": [
        -0.9999940395355225,
        -0.9998874664306641,
        -0.9999982118606567
      ],
      "type": "VEC3"
    },
    {
      "bufferView": 1,
      "componentType": 5126,
      "count": 25075,
      "max": [
        0.9822999835014343,
        0.6833999752998352
      ],
      "min": [
        0.01769999973475933,
        0.01769999973475933
      ],
      "type": "VEC2"
    },
    {
      "bufferView": 0,
      "componentType": 5125,
      "count": 145632,
      "type": "SCALAR"
    },
    {
      "bufferView": 2,
      "byteOffset": 601800,
      "componentType": 5126,
      "count": 6434,
      "max": [
        7.719299793243408,
        -0.050200000405311584,
        -1.4586999416351318
      ],
      "min": [
        -7.716599941253662,
        -11.022299766540527,
        -15.249300003051758
      ],
      "type": "VEC3"
    },
    {
      "bufferView": 2,
      "byteOffset": 679008,
      "componentType": 5126,
      "count": 6434,
      "max": [
        0.9999297857284546,
        0.9997202754020691,
        0.999689519405365
      ],
      "min": [
        -0.9999402761459351,
        -0.9997740387916565,
        -0.999964714050293
      ],
      "type": "VEC3"
    },
    {
      "bufferView": 1,
      "byteOffset": 200600,
      "componentType": 5126,
      "count": 6434,
      "max": [
        0.4959999918937683,
        0.9628000259399414
      ],
      "min": [
        0.008799999952316284,
        0.6805999875068665
      ],
      "type": "VEC2"
    },
    {
      "bufferView": 0,
      "byteOffset": 582528,
      "componentType": 5125,
      "count": 36672,
      "type": "SCALAR"
    },
    {
      "bufferView": 2,
      "byteOffset": 756216,
      "componentType": 5126,
      "count": 6096,
      "max": [
        4.750500202178955,
        -5.610199928283691,
        -7.915800094604492
      ],
      "min": [
        -4.74459981918335,
        -7.824900150299072,
        -15.487700462341309
      ],
      "type": "VEC3"
    },
    {
      "bufferView": 2,
      "byteOffset": 829368,
      "componentType": 5126,
      "count": 6096,
      "max": [
        0.9999762773513794,
        0.9996561408042908,
        0.9996138215065002
      ],
      "min": [
        -0.9999762773513794,
        -0.9995154738426208,
        -0.999927282333374
      ],
      "type": "VEC3"
    },
    {
      "bufferView": 1,
      "byteOffset": 252072,
      "componentType": 5126,
      "count": 6096,
      "max": [
        0.9871000051498413,
        0.9919999837875366
      ],
      "min": [
        0.5001999735832214,
        0.6014000177383423
      ],
      "type": "VEC2"
    },
    {
      "bufferView": 0,
      "byteOffset": 729216,
      "componentType": 5125,
      "count": 31716,
      "type": "SCALAR"
    },
    {
      "bufferView": 2,
      "byteOffset": 902520,
      "componentType": 5126,
      "count": 5077,
      "max": [
        4.439499855041504,
        -3.964400053024292,
        -8.035900115966797
      ],
      "min": [
        -4.439499855041504,
        -6.317699909210205,
        -15.178299903869629
      ],
      "type": "VEC3"
    },
    {
      "bufferView": 2,
      "byteOffset": 963444,
      "componentType": 5126,
      "count": 5077,
      "max": [
        0.9999758005142212,
        0.9999783039093018,
        0.9986908435821533
      ],
      "min": [
        -0.9999758005142212,
        -0.999830424785614,
        -0.9991954565048218
      ],
      "type": "VEC3"
    },
    {
      "bufferView": 1,
      "byteOffset": 300840,
      "componentType": 5126,
      "count": 5077,
      "max": [
        0.98580002784729,
        0.9904000163078308
      ],
      "min": [
        0.5001999735832214,
        0.6014000177383423
      ],
      "type": "VEC2"
    },
    {
      "bufferView": 0,
      "byteOffset": 856080,
      "componentType": 5125,
      "count": 26028,
      "type": "SCALAR"
    }
  ],
  "asset": {
    "extras": {
      "author": "Dinendra Neyo (https://sketchfab.com/NeyoZ)",
      "license": "CC-BY-4.0 (http://creativecommons.org/licenses/by/4.0/)",
      "source": "https://sketchfab.com/3d-models/human-skull-e294444423794f9c8b1d9c3888a955c1",
      "title": "Human Skull"
    },
    "generator": "Sketchfab-15.24.0",
    "version": "2.0"
  },
  "bufferViews": [
    {
      "buffer": 0,
      "byteLength": 960192,
      "name": "floatBufferViews",
      "target": 34963
    },
    {
      "buffer": 0,
      "byteLength": 341456,
      "byteOffset": 960192,
      "byteStride": 8,
      "name": "floatBufferViews",
      "target": 34962
    },
    {
      "buffer": 0,
      "byteLength": 1024368,
      "byteOffset": 1301648,
      "byteStride": 12,
      "name": "floatBufferViews",
      "target": 34962
    }
  ],
  "buffers": [
    {
      "byteLength": 2326016,
      "uri": "scene.bin"
    }
  ],
  "images": [
    {
      "uri": "textures/12140_Skull_v3_baseColor.jpeg"
    }
  ],
  "materials": [
    {
      "doubleSided": true,
      "emissiveTexture": {
        "index": 0
      },
      "name": "12140_Skull_v3",
      "pbrMetallicRoughness": {
        "baseColorTexture": {
          "index": 0
        },
        "metallicFactor": 0.0,
        "roughnessFactor": 0.9741036430790124
      }
    }
  ],
  "meshes": [
    {
      "name": "Object_0",
      "primitives": [
        {
          "attributes": {
            "NORMAL": 1,
            "POSITION": 0,
            "TEXCOORD_0": 2
          },
          "indices": 3,
          "material": 0,
          "mode": 4
        }
      ]
    },
    {
      "name": "Object_1",
      "primitives": [
        {
          "attributes": {
            "NORMAL": 5,
            "POSITION": 4,
            "TEXCOORD_0": 6
          },
          "indices": 7,
          "material": 0,
          "mode": 4
        }
      ]
    },
    {
      "name": "Object_2",
      "primitives": [
        {
          "attributes": {
            "NORMAL": 9,
            "POSITION": 8,
            "TEXCOORD_0": 10
          },
          "indices": 11,
          "material": 0,
          "mode": 4
        }
      ]
    },
    {
      "name": "Object_3",
      "primitives": [
        {
          "attributes": {
            "NORMAL": 13,
            "POSITION": 12,
            "TEXCOORD_0": 14
          },
          "indices": 15,
          "material": 0,
          "mode": 4
        }
      ]
    }
  ],
  "nodes": [
    {
      "children": [
        1
      ],
      "matrix": [
        1.0,
        2.832769343193999e-16,
        3.8248211677168574e-32,
        0.0,
        2.832769343193999e-16,
        -1.0,
        0.0,
        0.0,
        2.465190328815662e-32,
        0.0,
        -1.0,
        0.0,
        0.0,
        0.0,
        0.0,
        1.0
      ],
      "name": "Sketchfab_model"
    },
    {
      "children": [
        2,
        3,
        4,
        5
      ],
      "name": "12140_Skull_v3_L2.obj.cleaner.materialmerger.gles"
    },
    {
      "mesh": 0,
      "name": "Object_2"
    },
    {
      "mesh": 1,
      "name": "Object_3"
    },
    {
      "mesh": 2,
      "name": "Object_4"
    },
    {
      "mesh": 3,
      "name": "Object_5"
    }
  ],
  "samplers": [
    {
      "magFilter": 9729,
      "minFilter": 9987,
      "wrapS": 10497,
      "wrapT": 10497
    }
  ],
  "scene": 0,
  "scenes": [
    {
      "name": "Sketchfab_Scene",
      "nodes": [
        0
      ]
    }
  ],
  "textures": [
    {
      "sampler": 0,
      "source": 0
    }
  ]
}
